<?xml version="1.0" encoding="utf-8"?>
<!-- Generator: Adobe Illustrator 24.0.3, SVG Export Plug-In . SVG Version: 6.00 Build 0)  -->
<svg version="1.1" id="Calque_1" xmlns="http://www.w3.org/2000/svg" xmlns:xlink="http://www.w3.org/1999/xlink" x="0px" y="0px"
	 viewBox="0 0 3401.6 3401.6" style="enable-background:new 0 0 3401.6 3401.6;" xml:space="preserve">
<style type="text/css">
	.st0{fill:url(#SVGID_1_);}
</style>
<g>
	<g>
		<path d="M1544.1,2706.5l18.3,31c3.7,4.4,2.6,7.3-1.8,10.6c-20.8,15.7-46.5,25.6-79.3,25.6c-77.5,0-140.4-62.5-140.4-140
			c0-77.5,62.9-139.3,140.4-139.3c32.9,0,58.5,9.9,79.6,25.2c3.7,3.3,3.3,7.4,2.2,9.1l-19.4,32.9c-2.2,3-5.8,3-10.2,0.4
			c-17.2-10.6-32.6-16.8-52.3-16.8c-49.3,0-86.3,38.7-86.3,88.4c0,49.3,37,89.9,86.3,89.9c19.7,0,38.4-7.4,51.1-17.2
			C1536.8,2703.2,1540.9,2702.4,1544.1,2706.5z"/>
		<path d="M1612.1,2505.8c0-4.8,2.2-7.3,6.9-7.3h178.8c4.8,0,7.3,2.6,7.3,7.3v35.4c0,4.8-2.6,7.3-7.3,7.3h-132.3v55.2h100.9
			c4.8,0,8.1,2.2,8.1,7.4v34.7c0,4.8-3,7.3-8.1,7.3h-100.9v66.9h135.6c4.8,0,7.7,2.6,7.7,7.3v35.1c0,4.8-3,7.3-7.7,7.3h-182
			c-4.8,0-6.9-2.6-6.9-7.3L1612.1,2505.8L1612.1,2505.8z"/>
		<path d="M1846.7,2506.6c0-4.4,2.6-8.1,8.1-8.1h42.8c3.7,0,8.8,1.8,10.6,5.5l120.3,172.8V2504c1.4-4.4,5.1-5.5,8.1-5.5h37
			c3.7,0,8.8,3.3,8.8,8.1v255.1c0,5.5-3,8.1-8.8,8.1h-36.1c-5.8,0-7.7-2.6-10.6-5.8l-126.8-182.7v180.5c0.4,5.5-2.2,8.1-8.1,8.1h-37
			c-5.5,0-8.1-2.6-8.1-8.1L1846.7,2506.6L1846.7,2506.6z"/>
		<path d="M2114.6,2505.4c0-4.8,2.2-6.9,6.9-6.9h191.8c4.8,0,7.3,2.2,7.3,6.9v34.7c0,4.8-2.6,7.3-7.3,7.3h-70.1v214.9
			c0,4.8-2.2,7.3-6.9,7.3h-39.5c-4.8,0-6.9-2.6-6.9-7.3v-214.9h-68.3c-4.8,0-6.9-2.6-6.9-7.3L2114.6,2505.4L2114.6,2505.4z"/>
		<path d="M2359.8,2505.8c0-4.8,2.2-7.3,6.9-7.3h178.8c4.8,0,7.4,2.6,7.4,7.3v35.4c0,4.8-2.6,7.3-7.4,7.3h-132.3v55.2h100.9
			c4.8,0,8.1,2.2,8.1,7.4v34.7c0,4.8-3,7.3-8.1,7.3h-100.9v66.9h135.6c4.8,0,7.7,2.6,7.7,7.3v35.1c0,4.8-3,7.3-7.7,7.3h-182
			c-4.8,0-6.9-2.6-6.9-7.3L2359.8,2505.8L2359.8,2505.8z"/>
		<path d="M2594.5,2505.8c0-4,2.2-7.3,6.9-7.3h116.2c50,0,85.9,43.1,85.9,89.2c0,30.7-18.7,59.6-46,75.6l49.7,98.7
			c1.8,3.3,0,7.7-4.8,7.7h-47.2c-4,0-6.2-1.4-8.4-6.2l-43.5-87.7h-55.5v86.6c0,4.8-2.2,7.3-7.3,7.3h-39.1c-4.8,0-6.9-2.6-6.9-7.3
			L2594.5,2505.8L2594.5,2505.8z M2647.8,2545.7v81.9h57c25.2,0,44.2-17.2,44.2-40.9c0-23.1-19-40.9-44.2-40.9L2647.8,2545.7
			L2647.8,2545.7z"/>
	</g>
	<g>
		<g>
			<path d="M483.5,2187.1c0-4.8,2.6-7.7,7.3-7.7h39.5c4.8,0,6.9,3,6.9,7.7v256.2c0,4.8-2.2,7.3-6.9,7.3h-39.5
				c-5.1,0-7.3-2.6-7.3-7.3V2187.1z"/>
			<path d="M596.5,2187.5c0-4.4,2.6-8.1,8.1-8.1h42.8c3.7,0,8.8,1.8,10.6,5.5l120.3,172.8v-172.8c1.4-4.4,5.1-5.5,8.1-5.5h37
				c3.7,0,8.8,3.3,8.8,8.1v255.1c0,5.5-3,8.1-8.8,8.1H787c-5.8,0-7.7-2.6-10.6-5.8l-126.8-182.7v180.5c0.4,5.5-2.2,8.1-8.1,8.1h-37
				c-5.5,0-8.1-2.6-8.1-8.1L596.5,2187.5L596.5,2187.5z"/>
			<path d="M886.3,2187.5c0-4.4,2.6-8.1,8.1-8.1h42.8c3.7,0,8.8,1.8,10.6,5.5l120.3,172.8v-172.8c1.4-4.4,5.1-5.5,8.1-5.5h37
				c3.7,0,8.8,3.3,8.8,8.1v255.1c0,5.5-3,8.1-8.8,8.1h-36.1c-5.8,0-7.7-2.6-10.6-5.8l-127.1-182.8v180.5c0.4,5.5-2.2,8.1-8.1,8.1
				h-37c-5.5,0-8.1-2.6-8.1-8.1v-255.1H886.3z"/>
			<path d="M1301.5,2454.3c-77.1,0-138.8-62.2-138.8-139.3c0-77.5,61.8-139.6,138.8-139.6s140,62.2,140,139.6
				C1441.4,2392.1,1378.5,2454.3,1301.5,2454.3z M1301.5,2226.6c-49,0-85.6,39.1-85.6,88.4c0,49,36.5,88.1,85.6,88.1
				c49.3,0,86.3-39.1,86.3-88.1C1387.7,2265.7,1350.8,2226.6,1301.5,2226.6z"/>
			<path d="M1585.8,2444c-1.8,4.8-5.1,6.9-9.1,6.9H1546c-4.4,0-7.7-2.2-9.5-6.9l-100.9-257c-2.2-5.1,0.4-7.7,4.8-7.7h41.7
				c4.4,0,7.3,1.8,9.1,6.9l69.8,189.3l69.8-189.2c1.4-4.8,4.8-6.9,8.8-6.9h42.4c4.4,0,6.9,3,4.8,8.1L1585.8,2444z"/>
			<path d="M1755,2186.4c2.2-4.8,5.5-6.9,9.1-6.9h30.7c4,0,7.3,2.2,9.1,6.9L1907,2443c2.2,4.8-0.4,7.7-5.1,7.7h-39.8
				c-4.4,0-7.4-1.8-9.1-6.5l-17.6-43.9h-112.2l-17.2,43.9c-1.8,4.8-5.1,6.5-9.1,6.5h-40.2c-4.8,0-6.9-2.6-4.8-7.7L1755,2186.4z
				 M1740.3,2353h77.5l-38.4-103.4L1740.3,2353z"/>
			<path d="M1880,2186.4c0-4.8,2.2-6.9,6.9-6.9h191.8c4.8,0,7.3,2.2,7.3,6.9v34.7c0,4.8-2.6,7.4-7.3,7.4h-70.1v214.9
				c0,4.8-2.2,7.3-6.9,7.3h-39.5c-4.8,0-6.9-2.6-6.9-7.3v-214.9H1887c-4.8,0-6.9-2.6-6.9-7.4L1880,2186.4L1880,2186.4z"/>
			<path d="M2125.2,2187.1c0-4.8,2.6-7.7,7.3-7.7h39.5c4.8,0,6.9,3,6.9,7.7v256.2c0,4.8-2.2,7.3-6.9,7.3h-39.5
				c-5.1,0-7.3-2.6-7.3-7.3V2187.1z"/>
			<path d="M2363.5,2454.3c-77.1,0-138.8-62.2-138.8-139.3c0-77.5,61.8-139.6,138.8-139.6c77,0,140,62.2,140,139.6
				C2503.5,2392.1,2440.6,2454.3,2363.5,2454.3z M2363.5,2226.6c-49,0-85.6,39.1-85.6,88.4c0,49,36.5,88.1,85.6,88.1
				c49.3,0,86.3-39.1,86.3-88.1C2449.8,2265.7,2412.8,2226.6,2363.5,2226.6z"/>
			<path d="M2549.9,2187.5c0-4.4,2.6-8.1,8.1-8.1h42.8c3.7,0,8.8,1.8,10.6,5.5l120.3,172.8v-172.8c1.4-4.4,5.1-5.5,8.1-5.5h37
				c3.7,0,8.8,3.3,8.8,8.1v255.1c0,5.5-3,8.1-8.8,8.1h-36.1c-5.8,0-7.7-2.6-10.6-5.8l-126.8-182.7v180.5c0.4,5.5-2.2,8.1-8.1,8.1
				h-37c-5.5,0-8.1-2.6-8.1-8.1L2549.9,2187.5L2549.9,2187.5z"/>
		</g>
	</g>
	<g>
		<g>
			<path d="M1651.9,1916.1c0-3.4,1.8-5.2,5.2-5.2h62.2c49.1,0,97.5,42.2,97.5,96.5c0,52-42.4,94.7-96.5,96.5H1657
				c-3.4,0-5.2-1.8-5.2-5.2L1651.9,1916.1L1651.9,1916.1z M1715.9,1946h-25.7v122.8h25.7c35.6,0,62.7-27.3,62.7-61.3
				C1778.6,1973.4,1751.6,1946,1715.9,1946z"/>
			<path d="M1845.6,1916.1c0-3.4,1.5-5.2,4.9-5.2h127.3c3.4,0,5.2,1.8,5.2,5.2v25.2c0,3.4-1.8,5.2-5.2,5.2h-94.2v39.3h71.8
				c3.4,0,5.7,1.5,5.7,5.2v24.7c0,3.4-2.1,5.2-5.7,5.2h-71.8v47.6h96.5c3.4,0,5.5,1.8,5.5,5.2v24.9c0,3.4-2.1,5.2-5.5,5.2h-129.5
				c-3.4,0-4.9-1.8-4.9-5.2L1845.6,1916.1L1845.6,1916.1z"/>
			<path d="M2184,2099.2c-1.3,3.4-3.7,4.9-6.5,4.9h-21.9c-3.1,0-5.5-1.5-6.7-4.9l-71.8-182.9c-1.5-3.7,0.3-5.5,3.4-5.5h29.7
				c3.1,0,5.2,1.3,6.5,4.9l49.7,134.7l49.7-134.7c1.1-3.4,3.4-4.9,6.3-4.9h30.1c3.1,0,4.9,2.1,3.4,5.7L2184,2099.2z"/>
			<path d="M2280.8,1916.3c0-3.4,1.8-5.5,5.2-5.5h28.1c3.4,0,4.9,2.1,4.9,5.5v182.3c0,3.4-1.5,5.2-4.9,5.2H2286
				c-3.7,0-5.2-1.8-5.2-5.2V1916.3z"/>
			<path d="M2361.2,1916.6c0-3.1,1.8-5.7,5.7-5.7h30.4c2.6,0,6.3,1.3,7.5,3.9l85.6,123.1v-123.1c1.1-3.1,3.7-3.9,5.7-3.9h26.3
				c2.6,0,6.3,2.3,6.3,5.7v181.5c0,3.9-2.1,5.7-6.3,5.7h-25.7c-4.1,0-5.5-1.8-7.5-4.1l-90.2-130v128.5c0.3,3.9-1.5,5.7-5.7,5.7
				h-26.3c-3.9,0-5.7-1.8-5.7-5.7V1916.6L2361.2,1916.6z"/>
			<path d="M2702.4,2058.9l13,22.1c2.6,3.1,1.8,5.2-1.3,7.5c-14.8,11.2-33,18.2-56.4,18.2c-55.2,0-99.9-44.5-99.9-99.6
				c0-55.2,44.8-99.1,99.9-99.1c23.4,0,41.6,7,56.7,17.9c2.6,2.3,2.3,5.2,1.5,6.5l-13.8,23.4c-1.5,2.1-4.1,2.1-7.3,0.3
				c-12.2-7.5-23.1-11.9-37.2-11.9c-35.1,0-61.3,27.5-61.3,63c0,35.1,26.3,63.9,61.3,63.9c14.1,0,27.3-5.2,36.4-12.2
				C2697.2,2056.6,2700.1,2056,2702.4,2058.9z"/>
			<path d="M2750.8,1916.3c0-3.4,1.8-5.5,5.2-5.5h28.1c3.4,0,4.9,2.1,4.9,5.5v182.3c0,3.4-1.5,5.2-4.9,5.2H2756
				c-3.7,0-5.2-1.8-5.2-5.2V1916.3z"/>
		</g>
	</g>
</g>
<g>
	
		<linearGradient id="SVGID_1_" gradientUnits="userSpaceOnUse" x1="657.3678" y1="1955.1368" x2="1655.4231" y2="2769.1306" gradientTransform="matrix(1 0 0 -1 0 3402)">
		<stop  offset="0.204" style="stop-color:#0085A7"/>
		<stop  offset="0.5" style="stop-color:#CF1152"/>
		<stop  offset="0.8135" style="stop-color:#ED7616"/>
	</linearGradient>
	<path class="st0" d="M1826.1,940.6l-0.2-0.6l-195.8-254.4l-0.7-0.9l-208.8-98.9l-1.8-0.9l-302.5-58.7L799.4,599l-193.1,57l-1.3,0.4
		L491.4,786.6l-88.7,68l-20.9,180l60.2,219.3l185.8,103.4l128.1-29.8L859,1446.6l199.7-3.6l245.2,299.3l26.2-10.9l-24.2-243.4
		c25.6,10.9,83.8,37.4,84.4,37.6l1.2,0.6l152-22.8l172.4-106.1l24.9-110.3l83.5-35.5l58.4-159.7L1826.1,940.6z M1848.9,1091.9
		l-49.7,135.7l-64.2,27.3l-105.6-227.6l172.9-59.6L1848.9,1091.9z M1053.7,1225.9l106.2,128.2l-98.2,57l-188.4,3.4l-84.2-97.3
		L1053.7,1225.9z M1343.4,887.2l73.5-242.6l64,138L1343.4,887.2z M1506.8,762.9l-60.2-129.6l142.1,67.3L1506.8,762.9z M1520.5,792.3
		l95.7-72.8l169.6,220.4l-169.7,58.5L1520.5,792.3z M1503.7,1293.6l102.8-240.2l97.3,209.7L1503.7,1293.6z M1452.1,1333.6
		l-66.3,154.9c-9.5-4.3-22.1-10.1-35-15.8c-40.2-17.8-52.5-22.2-58-23.4c-9.3-7.8-40-39.6-76.9-79.7L1452.1,1333.6z M1181,1378.6
		c9.2,10.1,24.8,27,40.7,43.9c14.6,15.6,26.6,28,35.6,36.9c6.9,6.8,11.7,11.4,15.4,14.4l20.4,205l-202.8-247.6L1181,1378.6z
		 M1225.6,1166.6l-48.1,158.9l-91.7-110.7L1225.6,1166.6z M975.7,735.8l-265.3,26l-68.9-83.1l165.6-48.9l275.4-63.3L975.7,735.8z
		 M954.2,769.8L851.7,932.3L734.9,791.4L954.2,769.8z M1393.5,612.3l-89.1,294l-297-161.3l116.7-184.9L1393.5,612.3z M1274,1116.4
		l53.7-177.3l166.9-127l91.3,196.8L1274,1116.4z M1575.1,1046.1l-108.3,253.1l-260.2,39.7l56-185.1L1575.1,1046.1z M1064.1,1188.7
		L873,958l117.5-186.1L1295,937.3l-58.1,191.9L1064.1,1188.7z M439.9,866l68.4-52.4l188.4-18.5l133.6,161.2L623.2,1104L439.9,866z
		 M616.7,1147.6L734,1299.9l-101.5,23.6l-147.4-82.1L616.7,1147.6z M850.6,980.8l181.4,219l-264.7,91.3l-124.7-161.9L850.6,980.8z
		 M1419.7,1489.8L1489,1328l217.5-33.2l-18.6,82.5l-155.5,95.7L1419.7,1489.8z M540.6,778.5l73.1-83.7l58.6,70.8L540.6,778.5z
		 M597.4,1122.4L464.8,1217L414,1032l14.9-128.4L597.4,1122.4z"/>
</g>
</svg>
